<svg viewBox="0 0 49 56">
  <path fill="#1769ff" class="ba-icon-bg" d="M1482,2853l24.5-14,24.5,14v28l-24.5,14-24.5-14v-28Z" transform="translate(-1482 -2839)"/>
  <path fill="#fff" d="M1514.87,2862.84h-5.51v-1.3h5.51v1.3h0Zm-9.18,5.33a3.374,3.374,0,0,1,.53,1.91,3.8,3.8,0,0,1-1.58,3.09,3.687,3.687,0,0,1-1.54.65,9.812,9.812,0,0,1-1.93.18H1495v-13h6.61a4.328,4.328,0,0,1,3.55,1.38,3.216,3.216,0,0,1,.63,1.99,2.758,2.758,0,0,1-.64,1.91,3.126,3.126,0,0,1-1.04.74A3.073,3.073,0,0,1,1505.69,2868.17Zm-7.53-2.04h2.9a2.791,2.791,0,0,0,1.44-.33,1.2,1.2,0,0,0,.56-1.14,1.164,1.164,0,0,0-.74-1.2,5.552,5.552,0,0,0-1.61-.2h-2.55v2.87Zm5.18,3.76a1.388,1.388,0,0,0-.87-1.39,3.589,3.589,0,0,0-1.37-.22h-2.94v3.46h2.89a3.262,3.262,0,0,0,1.39-.23A1.614,1.614,0,0,0,1503.34,2869.89Zm13.58-2.11a10.4,10.4,0,0,1,.08,1.84h-7.14a2.2,2.2,0,0,0,1.03,1.97,2.73,2.73,0,0,0,1.41.35,2.206,2.206,0,0,0,1.42-.43,2.016,2.016,0,0,0,.53-0.64h2.62a3.02,3.02,0,0,1-.95,1.69,4.929,4.929,0,0,1-3.69,1.36,5.564,5.564,0,0,1-3.46-1.15,4.432,4.432,0,0,1-1.49-3.73,4.881,4.881,0,0,1,1.35-3.71,4.829,4.829,0,0,1,3.51-1.29,5.821,5.821,0,0,1,2.3.43,3.926,3.926,0,0,1,1.7,1.38A4.476,4.476,0,0,1,1516.92,2867.78Zm-2.58.24a1.976,1.976,0,0,0-.68-1.47,2.308,2.308,0,0,0-1.52-.51,2.069,2.069,0,0,0-1.53.54,2.448,2.448,0,0,0-.69,1.44h4.42Z" transform="translate(-1482 -2839)"/>
</svg>
