<svg viewBox="0 0 49 56">
  <path class="ba-icon-bg" fill="#ea4c89" d="M1392,2853l24.5-14,24.5,14v28l-24.5,14-24.5-14v-28Z" transform="translate(-1392 -2839)"/>
  <path fill="#fff" d="M1416.5,2880a11.988,11.988,0,0,1-4.85-.99,12.523,12.523,0,0,1-6.66-6.66,12.375,12.375,0,0,1,0-9.7,12.523,12.523,0,0,1,6.66-6.66,12.375,12.375,0,0,1,9.7,0,12.523,12.523,0,0,1,6.66,6.66,12.375,12.375,0,0,1,0,9.7,12.523,12.523,0,0,1-6.66,6.66A11.988,11.988,0,0,1,1416.5,2880Zm10.55-10.79c-0.09-.02-0.34-0.08-0.73-0.19a13.4,13.4,0,0,0-1.5-.29,19.031,19.031,0,0,0-2.04-.15,14.269,14.269,0,0,0-2.4.17c0.34,0.96.64,1.86,0.89,2.72s0.47,1.62.64,2.29,0.3,1.23.38,1.68,0.14,0.76.18,0.93a10.932,10.932,0,0,0,2.99-3.07A10.628,10.628,0,0,0,1427.05,2869.21Zm-6.37,8.13c-0.04-.23-0.11-0.6-0.22-1.11s-0.25-1.12-.44-1.83-0.4-1.51-.66-2.39-0.58-1.8-.96-2.77a0.188,0.188,0,0,1-.08.02,15.719,15.719,0,0,0-3.83,1.89,18,18,0,0,0-2.56,2.11,10.6,10.6,0,0,0-1.45,1.78c-0.31.5-.49,0.8-0.54,0.89a11.08,11.08,0,0,0,3.04,1.66,10.445,10.445,0,0,0,3.52.59A10.616,10.616,0,0,0,1420.68,2877.34Zm-12.12-2.68c0.05-.11.28-0.45,0.67-1.03a15.416,15.416,0,0,1,1.7-1.98,20.425,20.425,0,0,1,2.67-2.24,13.292,13.292,0,0,1,3.66-1.8,0.6,0.6,0,0,1,.2-0.07,0.648,0.648,0,0,0,.21-0.07c-0.15-.3-0.29-0.6-0.44-0.89s-0.29-.59-0.43-0.9a31.77,31.77,0,0,1-3.91.91c-1.26.21-2.4,0.36-3.4,0.45s-1.83.14-2.49,0.15-1.06.01-1.18,0.01v0.33a10.208,10.208,0,0,0,.73,3.87A11.122,11.122,0,0,0,1408.56,2874.66Zm-2.5-9.33c0.11,0,.45,0,1.03-0.01s1.31-.06,2.2-0.14,1.9-.21,3.05-0.39,2.34-.44,3.59-0.76c-0.45-.78-0.9-1.52-1.34-2.22s-0.85-1.34-1.21-1.89-0.67-1.01-.92-1.37-0.42-.59-0.49-0.7a10.4,10.4,0,0,0-3.84,3.02A10.567,10.567,0,0,0,1406.06,2865.33Zm7.95-8.19c0.07,0.09.23,0.32,0.5,0.68s0.58,0.82.95,1.38,0.77,1.2,1.22,1.91,0.88,1.47,1.31,2.27a14.265,14.265,0,0,0,2.44-1.15,14.876,14.876,0,0,0,1.71-1.21,9,9,0,0,0,1.02-.98q0.33-.4.42-0.51a10.779,10.779,0,0,0-3.24-1.98,10.476,10.476,0,0,0-3.84-.71A10.6,10.6,0,0,0,1414.01,2857.14Zm10.76,3.64c-0.05.07-.21,0.25-0.47,0.55a12.158,12.158,0,0,1-1.12,1.06,16.361,16.361,0,0,1-1.8,1.3,15.486,15.486,0,0,1-2.58,1.29c0.13,0.25.25,0.51,0.37,0.77s0.23,0.52.34,0.77l0.12,0.27a2.141,2.141,0,0,1,.12.28,17.857,17.857,0,0,1,2.61-.14c0.85,0.02,1.61.06,2.3,0.12s1.26,0.14,1.71.22,0.72,0.13.81,0.15A10.521,10.521,0,0,0,1424.77,2860.78Z" transform="translate(-1392 -2839)"/>
</svg>
