<svg viewBox="0 0 49 56">
  <path class="ba-icon-bg" fill="#0976b4" d="M1302,2853l24.5-14,24.5,14v28l-24.5,14-24.5-14v-28Z" transform="translate(-1302 -2839)"/>
  <path fill="#fff" d="M1334.3,2858h-14.6a3.548,3.548,0,0,0-3.7,3.36v13.28a3.548,3.548,0,0,0,3.7,3.36h14.6a3.548,3.548,0,0,0,3.7-3.36v-13.28A3.548,3.548,0,0,0,1334.3,2858Zm-10.05,16.25h-2.75v-8.75h2.75v8.75Zm-1.38-10a1.256,1.256,0,1,1,1.38-1.25A1.319,1.319,0,0,1,1322.87,2864.25Zm11,10h-2.75v-5a1.381,1.381,0,0,0-2.75,0v5h-2.74v-8.75h2.74v1.55a3.516,3.516,0,0,1,2.41-1.55,3.1,3.1,0,0,1,3.09,3.12v5.63Z" transform="translate(-1302 -2839)"/>
</svg>
