<svg xmlns="http://www.w3.org/2000/svg" width="21" height="16" viewBox="0 0 21 16">
  <defs>
    <style>
      .cls-1 {
        fill: #fff;
        fill-rule: evenodd;
      }
    </style>
  </defs>
  <path id="mail.svg" class="cls-1" d="M992.016,2347.93q0.4,0.27,2.4,1.62l3.07,2.07c0.078,0.06.244,0.17,0.5,0.35s0.465,0.32.633,0.43,0.371,0.24.609,0.37a3.534,3.534,0,0,0,.674.31,1.851,1.851,0,0,0,.588.1h0.02a1.872,1.872,0,0,0,.59-0.1,3.565,3.565,0,0,0,.67-0.31c0.24-.13.44-0.26,0.61-0.37s0.38-.25.63-0.43,0.42-.29.5-0.35q1.08-.72,5.49-3.69a5.6,5.6,0,0,0,1.43-1.4,2.923,2.923,0,0,0,.57-1.71,1.742,1.742,0,0,0-.56-1.29,1.86,1.86,0,0,0-1.32-.53H991.875a1.707,1.707,0,0,0-1.389.59,2.25,2.25,0,0,0-.486,1.48,2.634,2.634,0,0,0,.644,1.55A5.7,5.7,0,0,0,992.016,2347.93Zm17.814,1.22q-3.84,2.52-5.84,3.92c-0.44.32-.8,0.57-1.08,0.74a7.15,7.15,0,0,1-1.11.55,3.58,3.58,0,0,1-1.29.28h-0.02a3.589,3.589,0,0,1-1.291-.28,6.925,6.925,0,0,1-1.107-.55c-0.278-.17-0.639-0.42-1.084-0.74q-1.583-1.125-5.824-3.92a6.284,6.284,0,0,1-1.184-.99v9.02a1.741,1.741,0,0,0,.551,1.29,1.854,1.854,0,0,0,1.324.53h17.255a1.86,1.86,0,0,0,1.32-.53,1.732,1.732,0,0,0,.55-1.29v-9.02A7.111,7.111,0,0,1,1009.83,2349.15Z" transform="translate(-990 -2343)"/>
</svg>
