<svg xmlns="http://www.w3.org/2000/svg" viewBox="0 0 49 56">
  <path fill="#55acee" d="M1213,2853l24.5-14,24.5,14v28l-24.5,14-24.5-14v-28Z" transform="translate(-1213 -2839)"/>
  <path fill="#fff" d="M1248.39,2859.33a9.2,9.2,0,0,1-2.86,1.11,4.507,4.507,0,0,0-7.81,3.1,5.022,5.022,0,0,0,.11,1.04,12.789,12.789,0,0,1-9.3-4.75,4.574,4.574,0,0,0,1.4,6.07,4.509,4.509,0,0,1-2.04-.57v0.05a4.534,4.534,0,0,0,3.62,4.46,4.68,4.68,0,0,1-1.19.16,4.628,4.628,0,0,1-.85-0.08,4.53,4.53,0,0,0,4.21,3.16,9.05,9.05,0,0,1-5.6,1.94,9.507,9.507,0,0,1-1.08-.06,12.821,12.821,0,0,0,19.76-10.89l-0.02-.59a9.018,9.018,0,0,0,2.26-2.35,9.05,9.05,0,0,1-2.59.72A4.609,4.609,0,0,0,1248.39,2859.33Z" transform="translate(-1213 -2839)"/>
</svg>
