<svg xmlns="http://www.w3.org/2000/svg" width="22" height="22" viewBox="0 0 22 22">
  <defs>
    <style>
      .cls-1 {
        fill: #fff;
        fill-rule: evenodd;
      }
    </style>
  </defs>
  <path id="user.svg" class="cls-1" d="M635,2351.66c2.724,0,4.933-2.61,4.933-5.83,0-4.47-2.209-5.83-4.933-5.83s-4.933,1.36-4.933,5.83C630.067,2349.05,632.276,2351.66,635,2351.66Zm10.892,8.57-2.488-5.65a1.261,1.261,0,0,0-.563-0.61l-3.862-2.03a0.278,0.278,0,0,0-.265.02,6.028,6.028,0,0,1-7.428,0,0.278,0.278,0,0,0-.265-0.02l-3.862,2.03a1.261,1.261,0,0,0-.563.61l-2.488,5.65a1.271,1.271,0,0,0,.094,1.2,1.229,1.229,0,0,0,1.043.57h19.51a1.229,1.229,0,0,0,1.043-.57A1.274,1.274,0,0,0,645.892,2360.23Z" transform="translate(-624 -2340)"/>
</svg>
